# xmcd
#
# Track frame offsets: 
#        183
#        12833
#        26515
#        39580
#        50750
#        63638
#        74915
#        86518
#        97830
#        107883
#        118608
#        132683
#        147433
#        160500
#        170040
#        183080
#        195730
#        208648
#        229325
#        244040
#
# Disc length: 3485 seconds
#
# Revision: 6
# Processed by: cddbd v1.5.2PL0 Copyright (c) Steve Scherf et al.
# Submitted via: ExactAudioCopy v0.99pb4
#
DISCID=250d9b14
DTITLE=Bo Diddley - The Definitive Collection
DYEAR=2007
DGENRE=Rock
TTITLE0=Bo Diddley
TTITLE1=I'm a Man
TTITLE2=You Don't Love Me (You Don't Care)
TTITLE3=Diddley Daddy
TTITLE4=Pretty Thing
TTITLE5=Bring It to Jerome
TTITLE6=I'm Looking for a Woman
TTITLE7=Who Do You Love?
TTITLE8=Hey Bo Diddley
TTITLE9=Mona (I Need You Baby)
TTITLE10=Before You Accuse Me
TTITLE11=Say Man
TTITLE12=Dearest Darling
TTITLE13=Crackin' Up
TTITLE14=The Story of Bo Diddley
TTITLE15=Road Runner
TTITLE16=Pills
TTITLE17=I Can Tell
TTITLE18=You Can't Judge a Book by Its Cover
TTITLE19=Ooh Baby
EXTD=
EXTT0=
EXTT1=
EXTT2=
EXTT3=
EXTT4=
EXTT5=
EXTT6=
EXTT7=
EXTT8=
EXTT9=
EXTT10=
EXTT11=
EXTT12=
EXTT13=
EXTT14=
EXTT15=
EXTT16=
EXTT17=
EXTT18=
EXTT19=
PLAYORDER=
